<svg width="60" height="66" viewBox="0 0 60 66" fill="none" xmlns="http://www.w3.org/2000/svg">
<path d="M47.4425 65.04H12.4025C5.5225 65.04 0.7225 60.24 0.7225 53.36V43.28H16.7225V50.64H43.1225V38.64H12.4025C5.5225 38.64 1.5225 34.64 1.5225 27.76V12.48C1.5225 5.6 6.3225 0.799997 13.2025 0.799997H47.0425C53.9225 0.799997 58.7225 5.6 58.7225 12.48V21.28H42.7225V15.2H17.5225V25.44H48.2425C55.1225 25.44 59.1225 29.44 59.1225 36.32V53.36C59.1225 60.24 54.3225 65.04 47.4425 65.04Z" fill="#FF495A"/>
<path d="M0.7225 43.28V41.28H-1.2775V43.28H0.7225ZM16.7225 43.28H18.7225V41.28H16.7225V43.28ZM16.7225 50.64H14.7225V52.64H16.7225V50.64ZM43.1225 50.64V52.64H45.1225V50.64H43.1225ZM43.1225 38.64H45.1225V36.64H43.1225V38.64ZM58.7225 21.28V23.28H60.7225V21.28H58.7225ZM42.7225 21.28H40.7225V23.28H42.7225V21.28ZM42.7225 15.2H44.7225V13.2H42.7225V15.2ZM17.5225 15.2V13.2H15.5225V15.2H17.5225ZM17.5225 25.44H15.5225V27.44H17.5225V25.44ZM47.4425 63.04H12.4025V67.04H47.4425V63.04ZM12.4025 63.04C9.4399 63.04 7.04574 62.0148 5.39671 60.3658C3.74769 58.7168 2.7225 56.3226 2.7225 53.36H-1.2775C-1.2775 57.2774 0.0973082 60.7232 2.56829 63.1942C5.03926 65.6652 8.4851 67.04 12.4025 67.04V63.04ZM2.7225 53.36V43.28H-1.2775V53.36H2.7225ZM0.7225 45.28H16.7225V41.28H0.7225V45.28ZM14.7225 43.28V50.64H18.7225V43.28H14.7225ZM16.7225 52.64H43.1225V48.64H16.7225V52.64ZM45.1225 50.64V38.64H41.1225V50.64H45.1225ZM43.1225 36.64H12.4025V40.64H43.1225V36.64ZM12.4025 36.64C9.34747 36.64 7.18998 35.7591 5.79671 34.3658C4.40345 32.9725 3.5225 30.815 3.5225 27.76H-0.4775C-0.4775 31.585 0.641553 34.8675 2.96829 37.1942C5.29502 39.5209 8.57753 40.64 12.4025 40.64V36.64ZM3.5225 27.76V12.48H-0.4775V27.76H3.5225ZM3.5225 12.48C3.5225 9.5174 4.54769 7.12323 6.19671 5.47421C7.84574 3.82519 10.2399 2.8 13.2025 2.8V-1.2C9.2851 -1.2 5.83927 0.174806 3.36829 2.64578C0.897308 5.11676 -0.4775 8.5626 -0.4775 12.48H3.5225ZM13.2025 2.8H47.0425V-1.2H13.2025V2.8ZM47.0425 2.8C50.0051 2.8 52.3993 3.82519 54.0483 5.47421C55.6973 7.12323 56.7225 9.5174 56.7225 12.48H60.7225C60.7225 8.5626 59.3477 5.11676 56.8767 2.64578C54.4057 0.174806 50.9599 -1.2 47.0425 -1.2V2.8ZM56.7225 12.48V21.28H60.7225V12.48H56.7225ZM58.7225 19.28H42.7225V23.28H58.7225V19.28ZM44.7225 21.28V15.2H40.7225V21.28H44.7225ZM42.7225 13.2H17.5225V17.2H42.7225V13.2ZM15.5225 15.2V25.44H19.5225V15.2H15.5225ZM17.5225 27.44H48.2425V23.44H17.5225V27.44ZM48.2425 27.44C51.2975 27.44 53.455 28.3209 54.8483 29.7142C56.2416 31.1075 57.1225 33.265 57.1225 36.32H61.1225C61.1225 32.495 60.0035 29.2125 57.6767 26.8858C55.35 24.5591 52.0675 23.44 48.2425 23.44V27.44ZM57.1225 36.32V53.36H61.1225V36.32H57.1225ZM57.1225 53.36C57.1225 56.3226 56.0973 58.7168 54.4483 60.3658C52.7993 62.0148 50.4051 63.04 47.4425 63.04V67.04C51.3599 67.04 54.8057 65.6652 57.2767 63.1942C59.7477 60.7232 61.1225 57.2774 61.1225 53.36H57.1225Z" fill="white"/>
</svg>
