<svg width="66" height="66" viewBox="0 0 66 66" fill="none" xmlns="http://www.w3.org/2000/svg">
<path d="M42.9988 65.04H22.9988L0.11875 0.879996H17.7188L28.5988 33.92C30.1988 38.56 31.7188 43.6 32.9988 48.4C34.2788 43.6 35.7988 38.56 37.3988 33.92L48.2788 0.879996H65.8788L42.9988 65.04Z" fill="#17355A"/>
<path d="M42.9987 65.04V67.04H44.4089L44.8826 65.7118L42.9987 65.04ZM22.9988 65.04L21.1149 65.7118L21.5886 67.04H22.9988V65.04ZM0.11875 0.879996V-1.12H-2.71783L-1.76505 1.55178L0.11875 0.879996ZM17.7188 0.879996L19.6184 0.254444L19.1658 -1.12H17.7188V0.879996ZM28.5988 33.92L26.6991 34.5455L26.7035 34.5588L26.708 34.572L28.5988 33.92ZM32.9987 48.4L31.0663 48.9153L32.9987 56.1621L34.9312 48.9153L32.9987 48.4ZM37.3988 33.92L39.2895 34.572L39.294 34.5588L39.2984 34.5455L37.3988 33.92ZM48.2788 0.879996V-1.12H46.8317L46.3791 0.254444L48.2788 0.879996ZM65.8788 0.879996L67.7626 1.55178L68.7153 -1.12H65.8788V0.879996ZM42.9987 63.04H22.9988V67.04H42.9987V63.04ZM24.8826 64.3682L2.00255 0.208217L-1.76505 1.55178L21.1149 65.7118L24.8826 64.3682ZM0.11875 2.88H17.7188V-1.12H0.11875V2.88ZM15.8191 1.50555L26.6991 34.5455L30.4984 33.2944L19.6184 0.254444L15.8191 1.50555ZM26.708 34.572C28.2909 39.1623 29.7972 44.1564 31.0663 48.9153L34.9312 47.8847C33.6403 43.0436 32.1066 37.9576 30.4895 33.268L26.708 34.572ZM34.9312 48.9153C36.2003 44.1564 37.7066 39.1623 39.2895 34.572L35.508 33.268C33.8909 37.9576 32.3572 43.0436 31.0663 47.8847L34.9312 48.9153ZM39.2984 34.5455L50.1784 1.50555L46.3791 0.254444L35.4991 33.2944L39.2984 34.5455ZM48.2788 2.88H65.8788V-1.12H48.2788V2.88ZM63.9949 0.208217L41.1149 64.3682L44.8826 65.7118L67.7626 1.55178L63.9949 0.208217Z" fill="white"/>
</svg>